{
  "accessors": [
    {
      "bufferView": 3,
      "componentType": 5126,
      "count": 1195,
      "max": [
        2.2657036781311035,
        3.8034589290618896,
        0.3227235972881317
      ],
      "min": [
        -2.2657036781311035,
        3.346759080886841,
        -0.24135228991508484
      ],
      "type": "VEC3"
    },
    {
      "bufferView": 3,
      "byteOffset": 14340,
      "componentType": 5126,
      "count": 1195,
      "max": [
        0.9999895095825195,
        1.0,
        0.9999998807907104
      ],
      "min": [
        -0.9999895095825195,
        -0.9999871253967285,
        -0.9999855160713196
      ],
      "type": "VEC3"
    },
    {
      "bufferView": 2,
      "componentType": 5126,
      "count": 1195,
      "max": [
        0.8750001192092896,
        1.0000001192092896
      ],
      "min": [
        0.1250000149011612,
        0.0
      ],
      "type": "VEC2"
    },
    {
      "bufferView": 1,
      "componentType": 5125,
      "count": 4272,
      "type": "SCALAR"
    },
    {
      "bufferView": 3,
      "byteOffset": 28680,
      "componentType": 5126,
      "count": 1189,
      "max": [
        0.7835178375244141,
        3.844130754470825,
        0.4954969584941864
      ],
      "min": [
        -0.7835178375244141,
        -0.019650345668196678,
        -0.4197118580341339
      ],
      "type": "VEC3"
    },
    {
      "bufferView": 3,
      "byteOffset": 42948,
      "componentType": 5126,
      "count": 1189,
      "max": [
        0.9998424053192139,
        1.0,
        0.9999959468841553
      ],
      "min": [
        -0.9998424053192139,
        -0.9999992251396179,
        -0.999987006187439
      ],
      "type": "VEC3"
    },
    {
      "bufferView": 2,
      "byteOffset": 9560,
      "componentType": 5126,
      "count": 1189,
      "max": [
        0.8750001192092896,
        1.0000001192092896
      ],
      "min": [
        0.0,
        0.0
      ],
      "type": "VEC2"
    },
    {
      "bufferView": 1,
      "byteOffset": 17088,
      "componentType": 5125,
      "count": 3744,
      "type": "SCALAR"
    },
    {
      "bufferView": 3,
      "byteOffset": 57216,
      "componentType": 5126,
      "count": 606,
      "max": [
        0.42396241426467896,
        4.722294330596924,
        0.4435752332210541
      ],
      "min": [
        -0.42396241426467896,
        3.890254020690918,
        -0.3575516939163208
      ],
      "type": "VEC3"
    },
    {
      "bufferView": 3,
      "byteOffset": 64488,
      "componentType": 5126,
      "count": 606,
      "max": [
        0.9999898672103882,
        1.0,
        0.9995603561401367
      ],
      "min": [
        -0.9999898672103882,
        -0.9979394674301147,
        -0.9993972778320313
      ],
      "type": "VEC3"
    },
    {
      "bufferView": 2,
      "byteOffset": 19072,
      "componentType": 5126,
      "count": 606,
      "max": [
        0.8750001192092896,
        1.0000001192092896
      ],
      "min": [
        0.125,
        0.0
      ],
      "type": "VEC2"
    },
    {
      "bufferView": 1,
      "byteOffset": 32064,
      "componentType": 5125,
      "count": 2184,
      "type": "SCALAR"
    },
    {
      "bufferView": 3,
      "byteOffset": 71760,
      "componentType": 5126,
      "count": 128,
      "max": [
        0.1651640683412552,
        4.061393737792969,
        0.165164053440094
      ],
      "min": [
        -0.1651640683412552,
        3.75447154045105,
        -0.165164053440094
      ],
      "type": "VEC3"
    },
    {
      "bufferView": 3,
      "byteOffset": 73296,
      "componentType": 5126,
      "count": 128,
      "max": [
        1.0,
        0.6532272696495056,
        1.0
      ],
      "min": [
        -1.0,
        -0.6532270908355713,
        -1.0
      ],
      "type": "VEC3"
    },
    {
      "bufferView": 2,
      "byteOffset": 23920,
      "componentType": 5126,
      "count": 128,
      "max": [
        1.0,
        1.0
      ],
      "min": [
        7.450580596923828e-08,
        0.01000000536441803
      ],
      "type": "VEC2"
    },
    {
      "bufferView": 1,
      "byteOffset": 40800,
      "componentType": 5125,
      "count": 564,
      "type": "SCALAR"
    },
    {
      "bufferView": 5,
      "componentType": 5126,
      "count": 42,
      "max": [
        1.0,
        0.9123407006263733,
        0.9123402237892151,
        0.0,
        0.8966907858848572,
        1.0,
        0.9122031927108765,
        0.0,
        0.9123396873474121,
        0.844781219959259,
        1.0,
        0.0,
        3.2647647857666016,
        2.178579092025757,
        1.9644150733947754,
        1.0
      ],
      "min": [
        -0.0010641402332112193,
        -0.912340521812439,
        -0.9123402237892151,
        0.0,
        -0.8966910243034363,
        -0.9123402833938599,
        -0.5220972895622253,
        0.0,
        -0.9123396873474121,
        -0.2562105655670166,
        -0.7043337225914001,
        0.0,
        -3.2647645473480225,
        -3.59031081199646,
        -3.2708966732025146,
        1.0
      ],
      "type": "MAT4"
    },
    {
      "bufferView": 0,
      "componentType": 5123,
      "count": 1195,
      "type": "VEC4"
    },
    {
      "bufferView": 4,
      "componentType": 5126,
      "count": 1195,
      "max": [
        1.0,
        0.4948165714740753,
        0.2489149570465088,
        0.20554934442043304
      ],
      "min": [
        0.31446048617362976,
        0.0,
        0.0,
        0.0
      ],
      "type": "VEC4"
    },
    {
      "bufferView": 0,
      "byteOffset": 9560,
      "componentType": 5123,
      "count": 1189,
      "type": "VEC4"
    },
    {
      "bufferView": 4,
      "byteOffset": 19120,
      "componentType": 5126,
      "count": 1189,
      "max": [
        1.0,
        0.5,
        0.3103477656841278,
        0.0
      ],
      "min": [
        0.379304438829422,
        0.0,
        0.0,
        0.0
      ],
      "type": "VEC4"
    },
    {
      "bufferView": 0,
      "byteOffset": 19072,
      "componentType": 5123,
      "count": 606,
      "type": "VEC4"
    },
    {
      "bufferView": 4,
      "byteOffset": 38144,
      "componentType": 5126,
      "count": 606,
      "max": [
        1.0,
        0.0,
        0.0,
        0.0
      ],
      "min": [
        1.0,
        0.0,
        0.0,
        0.0
      ],
      "type": "VEC4"
    },
    {
      "bufferView": 0,
      "byteOffset": 23920,
      "componentType": 5123,
      "count": 128,
      "type": "VEC4"
    },
    {
      "bufferView": 4,
      "byteOffset": 47840,
      "componentType": 5126,
      "count": 128,
      "max": [
        1.0,
        0.3895992636680603,
        0.0,
        0.0
      ],
      "min": [
        0.6104007363319397,
        0.0,
        0.0,
        0.0
      ],
      "type": "VEC4"
    }
  ],
  "asset": {
    "extras": {
      "author": "Shedletsky_2 (https://sketchfab.com/Shedletsky_2)",
      "license": "CC-BY-4.0 (http://creativecommons.org/licenses/by/4.0/)",
      "source": "https://sketchfab.com/3d-models/p2u-base-modifiers-170e253b43b84ae0bede994e96ba1c0a",
      "title": "P2u Base  Modifiers"
    },
    "generator": "Sketchfab-0.3.0",
    "version": "2.0"
  },
  "bufferViews": [
    {
      "buffer": 0,
      "byteLength": 24944,
      "byteStride": 8,
      "name": "shortBufferViews",
      "target": 34962
    },
    {
      "buffer": 0,
      "byteLength": 43056,
      "byteOffset": 24944,
      "name": "floatBufferViews",
      "target": 34963
    },
    {
      "buffer": 0,
      "byteLength": 24944,
      "byteOffset": 68000,
      "byteStride": 8,
      "name": "floatBufferViews",
      "target": 34962
    },
    {
      "buffer": 0,
      "byteLength": 74832,
      "byteOffset": 92944,
      "byteStride": 12,
      "name": "floatBufferViews",
      "target": 34962
    },
    {
      "buffer": 0,
      "byteLength": 49888,
      "byteOffset": 167776,
      "byteStride": 16,
      "name": "floatBufferViews",
      "target": 34962
    },
    {
      "buffer": 0,
      "byteLength": 2688,
      "byteOffset": 217664,
      "name": "floatBufferViews"
    }
  ],
  "buffers": [
    {
      "byteLength": 220352,
      "uri": "scene.bin"
    }
  ],
  "materials": [
    {
      "name": "Scene_-_Root",
      "pbrMetallicRoughness": {
        "metallicFactor": 0.0,
        "roughnessFactor": 0.6
      }
    }
  ],
  "meshes": [
    {
      "name": "Object_0",
      "primitives": [
        {
          "attributes": {
            "JOINTS_0": 17,
            "NORMAL": 1,
            "POSITION": 0,
            "TEXCOORD_0": 2,
            "WEIGHTS_0": 18
          },
          "indices": 3,
          "material": 0,
          "mode": 4
        }
      ]
    },
    {
      "name": "Object_1",
      "primitives": [
        {
          "attributes": {
            "JOINTS_0": 19,
            "NORMAL": 5,
            "POSITION": 4,
            "TEXCOORD_0": 6,
            "WEIGHTS_0": 20
          },
          "indices": 7,
          "material": 0,
          "mode": 4
        }
      ]
    },
    {
      "name": "Object_2",
      "primitives": [
        {
          "attributes": {
            "JOINTS_0": 21,
            "NORMAL": 9,
            "POSITION": 8,
            "TEXCOORD_0": 10,
            "WEIGHTS_0": 22
          },
          "indices": 11,
          "material": 0,
          "mode": 4
        }
      ]
    },
    {
      "name": "Object_3",
      "primitives": [
        {
          "attributes": {
            "JOINTS_0": 23,
            "NORMAL": 13,
            "POSITION": 12,
            "TEXCOORD_0": 14,
            "WEIGHTS_0": 24
          },
          "indices": 15,
          "material": 0,
          "mode": 4
        }
      ]
    }
  ],
  "nodes": [
    {
      "children": [
        1
      ],
      "matrix": [
        1.0,
        0.0,
        0.0,
        0.0,
        0.0,
        2.220446049250313e-16,
        -1.0,
        0.0,
        0.0,
        1.0,
        2.220446049250313e-16,
        0.0,
        0.0,
        0.0,
        0.0,
        1.0
      ],
      "name": "Sketchfab_model"
    },
    {
      "children": [
        2
      ],
      "name": "root"
    },
    {
      "children": [
        3
      ],
      "matrix": [
        1.0,
        0.0,
        0.0,
        0.0,
        0.0,
        2.220446049250313e-16,
        1.0,
        0.0,
        0.0,
        -1.0,
        2.220446049250313e-16,
        0.0,
        0.0,
        0.0,
        0.0,
        1.0
      ],
      "name": "GLTF_SceneRootNode"
    },
    {
      "children": [
        4
      ],
      "matrix": [
        1.0960819721221924,
        0.0,
        -0.0,
        0.0,
        -0.0,
        0.04905567566715158,
        -1.0949836666800623,
        0.0,
        0.0,
        1.0949836666800623,
        0.04905567566715158,
        0.0,
        0.0,
        -0.05504174530506134,
        -0.010320327244699001,
        1.0
      ],
      "name": "Armature_45"
    },
    {
      "children": [
        5,
        7,
        9,
        11,
        13,
        6,
        8,
        10,
        12
      ],
      "name": "GLTF_created_0"
    },
    {
      "children": [
        14
      ],
      "name": "GLTF_created_0_rootJoint"
    },
    {
      "name": "arms_41"
    },
    {
      "mesh": 0,
      "name": "Object_7",
      "skin": 0
    },
    {
      "name": "body_42"
    },
    {
      "mesh": 1,
      "name": "Object_9",
      "skin": 0
    },
    {
      "name": "headd_43"
    },
    {
      "mesh": 2,
      "name": "Object_11",
      "skin": 0
    },
    {
      "name": "neck_44"
    },
    {
      "mesh": 3,
      "name": "Object_13",
      "skin": 0
    },
    {
      "children": [
        15,
        49,
        52
      ],
      "name": "hips_40",
      "rotation": [
        0.6911022663116455,
        3.855276986541867e-09,
        3.6864262753510957e-09,
        0.7227570414543152
      ],
      "scale": [
        1.0,
        0.9999999403953552,
        1.0000009536743164
      ],
      "translation": [
        -1.3475076166002964e-08,
        0.08534983545541763,
        2.277674674987793
      ]
    },
    {
      "children": [
        16
      ],
      "name": "spine_33",
      "rotation": [
        -2.0489096641540527e-08,
        -7.172626208251653e-13,
        -1.9805133790286918e-16,
        1.0
      ],
      "translation": [
        -1.998414996852438e-15,
        0.3299509882926941,
        5.587945217655488e-09
      ]
    },
    {
      "children": [
        17,
        32,
        34
      ],
      "name": "chest_32",
      "rotation": [
        4.284083843231201e-08,
        1.223576795439385e-12,
        4.322214841656418e-16,
        1.0
      ],
      "translation": [
        -1.2212225630772147e-15,
        0.45228663086891174,
        1.30385160446167e-08
      ]
    },
    {
      "children": [
        18
      ],
      "name": "shoulder L_14",
      "rotation": [
        0.7976398468017578,
        0.4995975196361542,
        -0.28636112809181213,
        0.17936088144779205
      ],
      "scale": [
        0.9999997615814209,
        0.9999997615814209,
        1.0
      ],
      "translation": [
        0.20132295787334442,
        0.33136284351348877,
        -0.012847770936787128
      ]
    },
    {
      "children": [
        19
      ],
      "name": "upper_arm L_13",
      "rotation": [
        0.09730101376771927,
        0.8857345581054688,
        -0.20103155076503754,
        0.4069312810897827
      ],
      "scale": [
        0.9999999403953552,
        1.0000001192092896,
        1.000000238418579
      ],
      "translation": [
        0.0013710309285670519,
        0.16845637559890747,
        -0.0011301826452836394
      ]
    },
    {
      "children": [
        20
      ],
      "name": "lower_arm L_12",
      "rotation": [
        -0.00019763018644880503,
        -0.0014201506273820996,
        -3.5843218029185664e-06,
        0.9999989867210388
      ],
      "scale": [
        0.9999999403953552,
        1.0,
        1.0
      ],
      "translation": [
        8.783884730689806e-09,
        0.6526874899864197,
        4.721911182059557e-07
      ]
    },
    {
      "children": [
        21,
        24,
        27,
        30
      ],
      "name": "wrist L_11",
      "rotation": [
        0.0007877867319621146,
        0.013731029815971851,
        2.5162795282085426e-05,
        0.9999054074287415
      ],
      "scale": [
        1.0,
        1.0,
        0.9999999403953552
      ],
      "translation": [
        5.20230969414115e-10,
        0.4895620048046112,
        1.1408701539039612e-07
      ]
    },
    {
      "children": [
        22
      ],
      "name": "index_finger L_2",
      "rotation": [
        0.07497325539588928,
        0.8525366187095642,
        -0.040881142020225525,
        0.515644371509552
      ],
      "scale": [
        1.0,
        1.000000238418579,
        0.9999998807907104
      ],
      "translation": [
        0.10352198779582977,
        0.3605905771255493,
        0.015978679060935974
      ]
    },
    {
      "children": [
        23
      ],
      "name": "index_finger L.001_1",
      "rotation": [
        8.242204785346985e-08,
        1.558125950396061e-05,
        -4.213419742882252e-06,
        1.0
      ],
      "scale": [
        0.9999999403953552,
        0.9999999403953552,
        0.9999999403953552
      ],
      "translation": [
        1.5086953908394207e-07,
        0.06349697709083557,
        -2.197995740971237e-07
      ]
    },
    {
      "name": "index_finger L.002_0",
      "rotation": [
        0.003903558710590005,
        0.005560214165598154,
        0.002305460860952735,
        0.999974250793457
      ],
      "scale": [
        0.9999998211860657,
        0.9999998211860657,
        0.9999998211860657
      ],
      "translation": [
        1.8121146183602832e-07,
        0.06349710375070572,
        1.304952945702098e-08
      ]
    },
    {
      "children": [
        25
      ],
      "name": "middle_finger L_5",
      "rotation": [
        2.054737342405133e-05,
        0.6211507320404053,
        -2.0949391910107806e-05,
        0.7836911082267761
      ],
      "translation": [
        -0.011254888027906418,
        0.3589043915271759,
        0.010995185934007168
      ]
    },
    {
      "children": [
        26
      ],
      "name": "middle_finger L.001_4",
      "rotation": [
        -4.0224549024969747e-07,
        8.217985305236652e-05,
        -1.7070245803552098e-06,
        1.0
      ],
      "scale": [
        0.9999998807907104,
        0.9999998807907104,
        0.9999998807907104
      ],
      "translation": [
        -3.2142452255357057e-07,
        0.06796388328075409,
        4.501915640275911e-08
      ]
    },
    {
      "name": "middle_finger L.002_3",
      "rotation": [
        -0.009449440985918045,
        -0.2664414048194885,
        0.004626273177564144,
        0.9637936949729919
      ],
      "scale": [
        0.9999998807907104,
        0.9999997019767761,
        0.9999997615814209
      ],
      "translation": [
        -1.5348483373145427e-07,
        0.06796342134475708,
        2.866617876406963e-07
      ]
    },
    {
      "children": [
        28
      ],
      "name": "ring_finger L_8",
      "rotation": [
        0.03375725820660591,
        -0.2782970666885376,
        0.13777175545692444,
        0.9499632120132446
      ],
      "scale": [
        0.9999998211860657,
        0.9999997019767761,
        0.9999998807907104
      ],
      "translation": [
        -0.1170254498720169,
        0.3570655584335327,
        0.004474646411836147
      ]
    },
    {
      "children": [
        29
      ],
      "name": "ring_finger L.001_7",
      "rotation": [
        -1.4475076568487566e-06,
        3.3570457162568346e-05,
        -2.364511601626873e-06,
        1.0
      ],
      "scale": [
        0.9999999403953552,
        1.0,
        1.0
      ],
      "translation": [
        -1.341098823104403e-07,
        0.058345552533864975,
        -2.68221242549771e-07
      ]
    },
    {
      "name": "ring_finger L.002_6",
      "rotation": [
        -0.008342054672539234,
        0.009251649491488934,
        -0.014708585105836391,
        0.9998142719268799
      ],
      "scale": [
        0.9999998807907104,
        0.9999998807907104,
        0.9999999403953552
      ],
      "translation": [
        6.872224567189278e-09,
        0.05834594741463661,
        -5.81226402118773e-07
      ]
    },
    {
      "children": [
        31
      ],
      "name": "thumb L_10",
      "rotation": [
        -0.5449339747428894,
        -0.5888316631317139,
        0.05498301610350609,
        0.5943914651870728
      ],
      "scale": [
        0.9999999403953552,
        1.0000001192092896,
        1.000000238418579
      ],
      "translation": [
        0.18026867508888245,
        0.20746809244155884,
        -0.060157403349876404
      ]
    },
    {
      "name": "thumb L.001_9",
      "rotation": [
        -1.4528632164001465e-06,
        -4.8317019718524534e-06,
        -4.488975264393957e-06,
        1.0
      ],
      "scale": [
        1.0,
        1.0,
        0.9999999403953552
      ],
      "translation": [
        4.283888088707499e-08,
        0.07482130825519562,
        -2.272443282436143e-07
      ]
    },
    {
      "children": [
        33
      ],
      "name": "neck_16",
      "rotation": [
        -6.332993507385254e-08,
        1.1046632358846509e-12,
        -6.733652526831591e-16,
        1.0
      ],
      "translation": [
        -1.2212411978020543e-15,
        0.45595842599868774,
        -1.862645149230957e-09
      ]
    },
    {
      "name": "head_15",
      "rotation": [
        3.725290298461914e-08,
        -1.2589269904328404e-12,
        4.1215101201067157e-16,
        1.0
      ],
      "translation": [
        5.551068006918092e-16,
        0.1231192871928215,
        -9.313225746154785e-09
      ]
    },
    {
      "children": [
        35
      ],
      "name": "shoulder R_31",
      "rotation": [
        0.7976397275924683,
        -0.4995976388454437,
        0.2863612174987793,
        0.17936091125011444
      ],
      "scale": [
        1.000000238418579,
        1.0000001192092896,
        1.0
      ],
      "translation": [
        -0.2013227492570877,
        0.3313627243041992,
        -0.012847622856497765
      ]
    },
    {
      "children": [
        36
      ],
      "name": "upper_arm R_30",
      "rotation": [
        0.09730090945959091,
        -0.8857346773147583,
        0.20103150606155396,
        0.40693116188049316
      ],
      "scale": [
        0.9999998807907104,
        0.9999998807907104,
        0.9999998807907104
      ],
      "translation": [
        -0.00137067842297256,
        0.16845634579658508,
        -0.0011299856705591083
      ]
    },
    {
      "children": [
        37
      ],
      "name": "lower_arm R_29",
      "rotation": [
        -0.00019769025675486773,
        0.0014201105805113912,
        3.5902110084862215e-06,
        0.9999989867210388
      ],
      "scale": [
        0.9999998807907104,
        0.9999998807907104,
        0.9999999403953552
      ],
      "translation": [
        8.878498825026782e-09,
        0.6526870131492615,
        -1.8746139573977416e-07
      ]
    },
    {
      "children": [
        38,
        41,
        44,
        47
      ],
      "name": "wrist R_28",
      "rotation": [
        0.0007877864991314709,
        -0.013731032609939575,
        -2.5162798920064233e-05,
        0.9999054670333862
      ],
      "scale": [
        1.0,
        1.0,
        0.9999998211860657
      ],
      "translation": [
        -5.238689482212067e-10,
        0.48956191539764404,
        -1.9790604710578918e-07
      ]
    },
    {
      "children": [
        39
      ],
      "name": "index_finger R_19",
      "rotation": [
        0.07497332245111465,
        -0.8525366187095642,
        0.040881119668483734,
        0.515644371509552
      ],
      "scale": [
        0.9999998807907104,
        0.9999997019767761,
        0.9999998211860657
      ],
      "translation": [
        -0.10352224111557007,
        0.3605901002883911,
        0.01597875915467739
      ]
    },
    {
      "children": [
        40
      ],
      "name": "index_finger R.001_18",
      "rotation": [
        1.577427255483599e-08,
        -1.5364263163064606e-05,
        4.2401961763971485e-06,
        1.0
      ],
      "scale": [
        1.0,
        0.9999998807907104,
        0.9999998807907104
      ],
      "translation": [
        1.0151212848086288e-07,
        0.06349727511405945,
        -5.580599982124568e-09
      ]
    },
    {
      "name": "index_finger R.002_17",
      "rotation": [
        0.0039035649970173836,
        -0.0055602421052753925,
        -0.0023054408375173807,
        0.999974250793457
      ],
      "scale": [
        1.0,
        0.9999998807907104,
        0.9999999403953552
      ],
      "translation": [
        2.285436124793705e-07,
        0.06349707394838333,
        9.857080840447452e-08
      ]
    },
    {
      "children": [
        42
      ],
      "name": "middle_finger R_22",
      "rotation": [
        2.054737888101954e-05,
        -0.6211507320404053,
        2.0949397367076017e-05,
        0.7836911082267761
      ],
      "translation": [
        0.011254841461777687,
        0.3589044213294983,
        0.010995366610586643
      ]
    },
    {
      "children": [
        43
      ],
      "name": "middle_finger R.001_21",
      "rotation": [
        -4.022285224891675e-07,
        -8.19190900074318e-05,
        1.7069523892132565e-06,
        1.0
      ],
      "scale": [
        1.0,
        0.9999999403953552,
        1.0
      ],
      "translation": [
        2.4341534299310297e-07,
        0.06796404719352722,
        1.5221303328871727e-08
      ]
    },
    {
      "name": "middle_finger R.002_20",
      "rotation": [
        -0.009449439123272896,
        0.2664414048194885,
        -0.0046262722462415695,
        0.9637936949729919
      ],
      "scale": [
        0.9999998807907104,
        0.9999998807907104,
        0.9999998211860657
      ],
      "translation": [
        2.2485168926777988e-07,
        0.06796381622552872,
        -1.4705017292726552e-07
      ]
    },
    {
      "children": [
        45
      ],
      "name": "ring_finger R_25",
      "rotation": [
        0.033757198601961136,
        0.2782970070838928,
        -0.1377718448638916,
        0.9499632716178894
      ],
      "scale": [
        0.9999998211860657,
        0.9999997615814209,
        0.9999999403953552
      ],
      "translation": [
        0.11702556908130646,
        0.357065349817276,
        0.0044747148640453815
      ]
    },
    {
      "children": [
        46
      ],
      "name": "ring_finger R.001_24",
      "rotation": [
        -1.5166589264481445e-06,
        -3.3471736969659105e-05,
        2.4709152057766914e-06,
        1.0
      ],
      "scale": [
        0.9999999403953552,
        0.9999999403953552,
        0.9999999403953552
      ],
      "translation": [
        -4.470289383107229e-08,
        0.05834544822573662,
        -4.470312120474773e-08
      ]
    },
    {
      "name": "ring_finger R.002_23",
      "rotation": [
        -0.008342042565345764,
        -0.00925164483487606,
        0.014708579517900944,
        0.9998142123222351
      ],
      "scale": [
        1.0,
        1.0000001192092896,
        1.000000238418579
      ],
      "translation": [
        1.8532878343080483e-08,
        0.05834588780999184,
        -1.811451539879272e-07
      ]
    },
    {
      "children": [
        48
      ],
      "name": "thumb R_27",
      "rotation": [
        -0.5449338555335999,
        0.5888317227363586,
        -0.05498311668634415,
        0.5943914651870728
      ],
      "scale": [
        1.0,
        1.000000238418579,
        1.0
      ],
      "translation": [
        -0.18026836216449738,
        0.20746788382530212,
        -0.06015726178884506
      ]
    },
    {
      "name": "thumb R.001_26",
      "rotation": [
        -1.5795228591741761e-06,
        4.883855581283569e-06,
        4.541128873825073e-06,
        1.0
      ],
      "scale": [
        1.0,
        1.0,
        1.0000001192092896
      ],
      "translation": [
        -1.6391290103001666e-07,
        0.07482153922319412,
        9.685989255103777e-08
      ]
    },
    {
      "children": [
        50
      ],
      "name": "upper_Leg L_36",
      "rotation": [
        -0.7071080803871155,
        0.00034619474899955094,
        0.707105278968811,
        0.00034618948120623827
      ],
      "scale": [
        0.9999999403953552,
        0.9999997615814209,
        0.9999998807907104
      ],
      "translation": [
        0.31497204303741455,
        -0.05072389915585518,
        1.4975478634937645e-09
      ]
    },
    {
      "children": [
        51
      ],
      "name": "lower_leg L_35",
      "rotation": [
        -2.555988248786889e-05,
        3.5395953545958037e-06,
        -3.645786339490087e-09,
        1.0
      ],
      "scale": [
        1.0,
        0.9999999403953552,
        0.9999999403953552
      ],
      "translation": [
        -7.1333934315021e-09,
        0.9606540203094482,
        -1.6335617303298022e-08
      ]
    },
    {
      "name": "lower_leg L.001_34",
      "rotation": [
        0.0008695800788700581,
        0.0003969859972130507,
        0.5578343868255615,
        0.8299517631530762
      ],
      "scale": [
        1.0,
        1.0,
        0.9999999403953552
      ],
      "translation": [
        -1.4465989295331383e-08,
        0.9647905826568604,
        2.376445706886443e-08
      ]
    },
    {
      "children": [
        53
      ],
      "name": "upper_Leg R_39",
      "rotation": [
        -0.7071080803871155,
        -0.00034619474899955094,
        -0.707105278968811,
        0.00034618948120623827
      ],
      "scale": [
        0.9999999403953552,
        0.9999997615814209,
        0.9999998807907104
      ],
      "translation": [
        -0.31497204303741455,
        -0.05072389915585518,
        -1.2673426752485284e-08
      ]
    },
    {
      "children": [
        54
      ],
      "name": "lower_leg R_38",
      "rotation": [
        -2.55598879448371e-05,
        -3.528926981744007e-06,
        3.6408358550232833e-09,
        1.0
      ],
      "scale": [
        1.0,
        0.9999999403953552,
        0.9999999403953552
      ],
      "translation": [
        4.3291858986549414e-10,
        0.9606540203094482,
        -1.6761942944754082e-08
      ]
    },
    {
      "name": "lower_leg R.001_37",
      "rotation": [
        0.0008695799042470753,
        -0.0003969859972130507,
        -0.5578343272209167,
        0.829951822757721
      ],
      "scale": [
        1.0000001192092896,
        1.0,
        0.9999999403953552
      ],
      "translation": [
        1.4464852426954167e-08,
        0.9647905826568604,
        2.376445706886443e-08
      ]
    }
  ],
  "scene": 0,
  "scenes": [
    {
      "name": "Sketchfab_Scene",
      "nodes": [
        0
      ]
    }
  ],
  "skins": [
    {
      "inverseBindMatrices": 16,
      "joints": [
        5,
        14,
        15,
        16,
        17,
        18,
        19,
        20,
        21,
        22,
        23,
        24,
        25,
        26,
        27,
        28,
        29,
        30,
        31,
        32,
        33,
        34,
        35,
        36,
        37,
        38,
        39,
        40,
        41,
        42,
        43,
        44,
        45,
        46,
        47,
        48,
        49,
        50,
        51,
        52,
        53,
        54
      ],
      "skeleton": 5
    }
  ]
}
